<?xml version="1.0" standalone="no"?>
<!DOCTYPE svg PUBLIC "-//W3C//DTD SVG 20010904//EN"
 "http://www.w3.org/TR/2001/REC-SVG-20010904/DTD/svg10.dtd">
<svg version="1.0" xmlns="http://www.w3.org/2000/svg"
 width="138.000000pt" height="138.000000pt" viewBox="0 0 138.000000 138.000000"
 preserveAspectRatio="xMidYMid meet">
<metadata>
Created by potrace 1.14, written by Peter Selinger 2001-2017
</metadata>
<g transform="translate(0.000000,138.000000) scale(0.100000,-0.100000)"
fill="#000000" stroke="none">
<path d="M632 1278 c-67 -10 -143 -43 -172 -73 -25 -26 -26 -60 -16 -430 7
-239 11 -299 22 -328 35 -92 419 -77 462 17 5 12 10 64 11 116 1 52 4 151 6
220 9 342 7 386 -19 419 -19 25 -93 52 -158 57 -35 3 -67 7 -73 8 -5 1 -34 -1
-63 -6z"/>
<path d="M376 844 c-18 -17 -19 -27 -18 -163 1 -187 30 -284 98 -330 39 -27
127 -60 160 -61 19 0 20 -5 18 -115 l-1 -116 86 3 86 3 5 118 5 118 53 18 c62
21 117 70 143 126 25 58 42 311 25 380 -7 27 -39 34 -53 13 -4 -7 -8 -65 -9
-128 -1 -160 -11 -218 -40 -262 -41 -59 -127 -90 -249 -89 -98 0 -157 17 -200
55 -34 30 -40 43 -50 111 -3 17 -7 41 -10 55 -7 36 -8 237 -1 249 4 6 -2 15
-13 20 -15 8 -23 7 -35 -5z"/>
</g>
</svg>
